<svg xmlns="http://www.w3.org/2000/svg" width="120" height="120" viewBox="0 0 120 120" role="img" aria-label="Soteria Forge mark">
  <defs>
    <linearGradient id="fsEmber" x1="0" y1="0" x2="0.3" y2="1">
      <stop offset="0" stop-color="#F69A3C"></stop>
      <stop offset="1" stop-color="#D8451A"></stop>
    </linearGradient>
    <linearGradient id="fsFlame" x1="0" y1="0" x2="0" y2="1">
      <stop offset="0" stop-color="#FFE6B0"></stop>
      <stop offset="1" stop-color="#F8D38A"></stop>
    </linearGradient>
    <clipPath id="fsClip">
      <path d="M60,12 L100,25 V58 C100,85 83,104 60,112 C37,104 20,85 20,58 V25 Z"></path>
    </clipPath>
  </defs>
  <g clip-path="url(#fsClip)">
    <rect x="0" y="0" width="120" height="120" fill="url(#fsEmber)"></rect>
    <polygon points="60,12 20,25 20,58 60,112" fill="#AE3A14"></polygon>
    <polygon points="60,12 100,25 100,58 60,112" fill="#DC481B"></polygon>
    <polygon points="100,58 60,112 92,74" fill="#C0411790"></polygon>
    <polygon points="60,12 100,25 70,33 60,26" fill="#FFC774" opacity="0.85"></polygon>
    <polygon points="60,12 60,26 40,31 20,25" fill="#F0853210"></polygon>
  </g>
  <path d="M60,40 C64,55 77,59 77,74 C77,88 69,98 60,98 C51,98 43,88 43,74 C43,64 51,59 54,51 C55,55 58,54 58,47 C58,44 59,42 60,40 Z" fill="url(#fsFlame)"></path>
  <path d="M60,67 C61,74 67,77 67,83 C67,89 64,93 60,93 C56,93 53,89 53,83 C53,77 59,74 60,67 Z" fill="#E8551F"></path>
  <path d="M60,12 V40 M60,98 V112" stroke="#1B1E23" stroke-width="1.3" opacity="0.45"></path>
  <path d="M60,12 L100,25 V58 C100,85 83,104 60,112 C37,104 20,85 20,58 V25 Z" fill="none" stroke="#1B1E23" stroke-width="3" opacity="0.9"></path>
</svg>